<?xml version="1.0" encoding="utf-8"?>
<!-- Generator: Adobe Illustrator 24.2.3, SVG Export Plug-In . SVG Version: 6.00 Build 0)  -->
<svg version="1.1" id="Layer_1" xmlns="http://www.w3.org/2000/svg" xmlns:xlink="http://www.w3.org/1999/xlink" x="0px" y="0px"
	 viewBox="0 0 250 250" style="enable-background:new 0 0 250 250;" xml:space="preserve">
<style type="text/css">
	.st0{fill:#458CCA;}
</style>
<g>
	<g>
		<path class="st0" d="M29.62,233.4h213.43c1.53-2.43,0.51-6.67-3.05-6.67H38.53c-11.19,0-20.28-10.13-20.28-22.53
			c-0.05-3.92-0.05-7.85,0-11.82h221.74c5.03,0,4.97-8.32,0-8.32H43.02l190.28-56.52c4.83-1.4,2.85-9.46-1.96-8.06L41.06,175.98
			L211.68,66.81c4.26-2.81,0.6-9.94-3.78-7.26L37.33,168.77l139.3-154.45c3.48-3.86-1.8-9.83-5.36-5.89
			c0.03-0.03-160.55,179.8-160.58,179.8v16.01C10.73,217.76,18.64,229.27,29.62,233.4z"/>
		<path class="st0" d="M38.53,224.23h201.47v-29.37H20.5v9.38C20.5,215.27,28.58,224.23,38.53,224.23z"/>
	</g>
</g>
</svg>
